# xmcd
#
# Track frame offsets:
#	150
#	8823
#	19011
#	32295
#	41073
#	54291
#	65315
#	75764
#	87833
#	98309
#	110365
#	120645
#
# Disc length: 1771 seconds
#
# Revision: 0
# Processed by: cddbd v1.4PL0 Copyright (c) Steve Scherf et al.
# Submitted via: EasyCDDAExtractor 4.5.0.2
#
DISCID=7406e90c
DTITLE=Jerry Hill - Country Time with Tommy Overstreet
DYEAR=1999
DGENRE=Country
TTITLE0=Sam's Place
TTITLE1='till Closing Time
TTITLE2=Hell Froze Over Last Night
TTITLE3=From A Jack To A King  ( With T. Overstreet)
TTITLE4=Don't Rock The Jukebox
TTITLE5=The Worst Of Her ( Has The Best Of Me)
TTITLE6=Cotton Fields ( With T. Overstreet
TTITLE7=She Took It Like A Man
TTITLE8=Together Again
TTITLE9=The Bottle Let Me Down
TTITLE10=Poor, Broke, Mixed Up, Mess Of A Heart
TTITLE11=Record Breaking Heartache Of The Year
EXTD=
EXTT0=
EXTT1=
EXTT2=
EXTT3=
EXTT4=
EXTT5=
EXTT6=
EXTT7=
EXTT8=
EXTT9=
EXTT10=
EXTT11=
PLAYORDER=
